<?xml version="1.0" standalone="no"?>
<!DOCTYPE svg PUBLIC "-//W3C//DTD SVG 20010904//EN"
 "http://www.w3.org/TR/2001/REC-SVG-20010904/DTD/svg10.dtd">
<svg version="1.0" xmlns="http://www.w3.org/2000/svg"
 width="1024.000000pt" height="576.000000pt" viewBox="0 0 1024.000000 576.000000"
 preserveAspectRatio="xMidYMid meet">

<g transform="translate(0.000000,576.000000) scale(0.100000,-0.100000)"
fill="#000000" stroke="none">
<path d="M0 5385 l0 -375 33 0 c17 0 131 -7 252 -15 580 -38 1258 -56 2100
-56 707 0 1158 -11 1495 -39 135 -11 398 -27 584 -35 187 -9 432 -25 545 -37
161 -16 303 -22 646 -26 242 -3 424 -9 405 -12 -31 -7 -32 -8 -7 -9 28 -1 37
-15 15 -24 -8 -3 -6 -6 5 -6 9 -1 17 5 17 12 1 6 7 -1 15 -18 15 -30 14 -22
-1 38 -4 17 -3 19 5 7 5 -8 13 -32 16 -52 4 -21 11 -38 16 -38 6 0 8 4 5 9 -3
5 5 11 19 13 17 4 25 1 25 -8 0 -8 5 -13 11 -11 6 1 14 -5 16 -13 4 -13 3 -13
-6 0 -10 13 -11 13 -11 0 0 -13 -1 -13 -10 0 -8 13 -10 12 -10 -2 0 -11 7 -18
18 -18 9 0 32 -9 50 -20 19 -12 31 -16 28 -11 -9 14 20 21 33 8 9 -9 14 -9 20
2 7 11 9 11 14 0 3 -8 6 -5 6 8 1 27 -18 41 -30 22 -7 -11 -9 -10 -9 4 0 9 -7
17 -15 17 -8 0 -15 5 -15 10 0 14 13 13 28 -2 7 -7 12 -9 12 -4 0 13 -26 34
-64 50 -26 11 -36 12 -36 3 0 -7 -4 -6 -10 3 -9 13 -10 13 -10 0 0 -13 -1 -13
-10 0 -5 8 -10 11 -10 5 0 -10 -20 15 -20 26 0 3 11 5 25 5 14 0 25 -5 25 -10
0 -6 4 -5 9 3 12 18 500 9 701 -14 111 -13 284 -18 733 -22 338 -3 587 -9 587
-14 0 -5 10 -9 23 -9 18 0 19 -2 7 -11 -12 -8 -9 -9 11 -5 17 4 31 1 38 -8 7
-8 42 -20 79 -27 37 -7 61 -14 55 -16 -22 -8 -14 -25 10 -22 12 1 55 -1 96 -5
58 -7 80 -14 102 -34 36 -32 36 -40 2 -36 l-28 4 27 -11 c19 -7 33 -7 45 0 10
6 13 11 6 11 -7 0 -10 7 -7 15 4 8 1 15 -5 15 -6 0 -11 4 -11 10 0 5 7 7 15 4
16 -7 21 11 5 21 -5 3 -7 12 -4 19 3 7 -2 16 -10 19 -9 4 -16 16 -16 27 0 11
-7 20 -16 20 -8 0 -12 -4 -9 -10 3 -5 1 -10 -4 -10 -6 0 -11 7 -11 15 0 8 -5
15 -11 15 -6 0 -4 7 5 15 12 12 48 15 198 15 101 0 219 -4 263 -10 285 -35
815 -70 1052 -70 l93 0 0 540 0 540 -5120 0 -5120 0 0 -375z m6137 -627 c-3
-8 -6 -5 -6 6 -1 11 2 17 5 13 3 -3 4 -12 1 -19z m110 -50 c-3 -8 -6 -5 -6 6
-1 11 2 17 5 13 3 -3 4 -12 1 -19z"/>
<path d="M2414 4922 c3 -5 -18 -7 -47 -5 -38 3 -48 2 -37 -6 8 -6 10 -11 5
-11 -6 0 -16 5 -23 12 -9 9 -12 8 -13 -7 0 -19 -1 -19 -9 0 -8 19 -9 19 -9 -2
-1 -14 5 -23 14 -23 9 0 15 -9 15 -24 0 -13 6 -29 14 -35 12 -10 15 -7 19 16
4 26 4 25 7 -7 l3 -35 7 40 7 40 2 -35 c1 -19 11 -46 22 -60 l21 -25 -5 28
c-2 15 0 27 4 27 5 0 9 -21 10 -47 1 -39 2 -43 9 -23 7 21 8 22 10 5 l1 -20 9
20 c8 19 9 19 9 -3 1 -13 5 -20 11 -17 6 3 13 -1 16 -10 6 -13 8 -14 15 -3 6
9 9 7 9 -8 0 -30 28 -39 33 -11 3 17 5 16 7 -8 2 -30 2 -30 10 -5 5 17 8 19 9
8 1 -10 6 -18 11 -18 6 0 10 -8 10 -17 0 -15 2 -16 10 -3 6 10 10 11 10 3 0
-7 7 -13 15 -13 8 0 15 -8 15 -17 0 -15 2 -16 10 -3 8 12 10 10 11 -10 0 -23
1 -23 9 -5 l9 20 1 -20 1 -20 9 20 c8 18 9 18 10 -5 1 -23 2 -23 10 -5 8 19 9
19 9 -3 1 -13 5 -20 11 -17 6 3 10 0 10 -7 0 -9 3 -9 10 2 6 10 10 11 10 2 0
-6 4 -11 9 -10 5 2 17 -6 27 -17 18 -19 35 -27 62 -28 6 0 12 -4 12 -9 0 -5 4
-6 10 -3 5 3 17 -3 27 -15 10 -11 30 -20 45 -20 20 0 28 -5 28 -17 0 -15 2
-16 10 -3 8 12 10 12 11 -5 l0 -20 9 20 c7 17 9 17 9 3 1 -11 9 -18 21 -18 10
0 23 -6 27 -14 4 -8 23 -17 42 -19 19 -3 37 -11 41 -17 6 -9 9 -9 13 1 4 11 6
10 6 -2 1 -9 8 -16 16 -17 8 -1 22 -3 30 -4 8 -1 15 -8 15 -17 0 -13 2 -13 9
-2 6 9 10 10 12 2 3 -7 13 -14 24 -16 11 -2 21 -4 23 -5 4 -4 22 -7 45 -9 16
-1 18 -4 8 -10 -17 -11 0 -22 28 -16 15 3 21 -1 21 -13 0 -15 2 -15 10 -2 7
11 10 11 10 2 0 -7 5 -10 10 -7 6 3 10 1 10 -4 0 -6 7 -11 15 -11 8 0 15 -6
15 -12 0 -9 4 -8 10 2 7 11 10 11 10 2 0 -7 5 -10 10 -7 6 3 10 2 10 -3 0 -5
6 -9 13 -10 25 -2 43 -9 94 -35 29 -15 64 -28 78 -29 14 -1 25 -7 25 -13 0 -5
5 -3 10 5 9 13 10 13 10 0 0 -13 1 -13 10 0 8 13 10 13 10 -1 0 -18 20 -29 49
-29 10 0 32 -7 50 -16 17 -9 38 -13 46 -10 18 7 20 -10 3 -17 -7 -3 1 -3 18 0
24 4 36 0 53 -18 17 -19 21 -20 21 -6 0 9 4 17 10 17 5 0 6 -7 3 -17 -4 -11
-3 -14 5 -9 7 4 12 1 13 -6 0 -7 4 -4 9 7 8 19 9 19 9 -3 1 -20 3 -21 23 -11
18 9 24 8 34 -6 9 -12 22 -16 39 -13 20 4 23 3 14 -8 -16 -20 -4 -17 17 4 17
16 17 16 12 -5 -7 -27 4 -29 38 -7 22 15 24 15 18 0 -5 -13 1 -16 37 -17 l44
0 -55 -16 c-48 -13 -139 -14 -705 -9 -357 3 -848 10 -1090 15 -242 6 -584 13
-760 16 -176 3 -579 12 -895 20 -316 8 -630 15 -697 15 l-123 0 0 -1043 0
-1044 553 1 c474 1 707 -4 942 -20 81 -5 935 -4 1125 1 280 9 599 25 815 40
110 8 288 20 395 27 270 17 1052 14 1400 -6 609 -35 966 -56 978 -56 6 0 12
-4 12 -10 0 -5 -5 -9 -12 -7 -7 1 -18 -14 -25 -33 l-13 -35 4 40 c5 38 5 38
-7 14 -12 -27 -27 -23 -39 11 -3 8 -6 -72 -7 -178 l-2 -192 321 0 c316 0 320
0 320 21 0 11 5 17 10 14 6 -3 10 -1 10 4 0 6 -4 11 -10 11 -5 0 -10 8 -9 18
0 10 3 12 6 5 2 -7 12 -13 21 -13 11 0 13 3 6 8 -7 4 -15 40 -19 80 -8 78 -25
108 -25 43 0 -22 5 -41 13 -44 6 -2 -15 -2 -48 1 -71 5 -85 14 -86 56 -1 17
-3 23 -6 14 -3 -13 -15 -18 -44 -18 -21 0 -39 -5 -39 -11 0 -6 14 -9 33 -7 23
2 32 -1 32 -12 0 -23 -62 -26 -86 -4 -25 23 -24 52 4 82 12 14 16 22 10 18 -7
-4 -13 -2 -13 3 0 6 -7 11 -15 11 -9 0 -12 6 -8 15 6 17 24 16 25 0 1 -13 29
-34 46 -35 21 0 13 27 -10 34 -19 5 -21 8 -8 16 13 10 13 11 0 9 -29 -3 -41 1
-35 11 3 6 -3 10 -14 10 -12 0 -21 6 -22 13 0 6 -4 3 -9 -8 -8 -18 -9 -17 -9
7 -1 26 0 26 87 33 48 3 125 10 172 16 47 5 97 10 113 11 32 3 32 3 7 30 -29
32 -26 74 9 109 34 34 77 38 111 11 20 -16 20 -19 7 -31 -12 -9 -21 -10 -36
-1 -29 15 -61 -3 -61 -35 0 -32 32 -50 62 -34 18 10 24 8 39 -10 9 -11 20 -21
23 -21 3 0 6 50 6 110 0 103 1 110 20 110 16 0 20 -7 21 -37 1 -21 0 -49 -1
-62 l-2 -23 35 26 c18 14 47 26 62 26 l29 0 -39 -40 -39 -40 27 -28 c27 -28
28 -28 127 -24 110 4 166 -8 175 -39 5 -15 12 -18 28 -14 15 4 18 3 9 -3 -10
-7 -7 -16 15 -43 37 -45 44 -50 70 -46 13 2 19 -1 17 -7 -5 -14 -44 -19 -44
-5 0 5 -10 8 -22 8 -17 -1 -19 -2 -5 -6 9 -2 17 -9 17 -14 0 -6 8 -9 18 -7 9
1 23 -1 31 -6 10 -6 12 -5 7 2 -4 7 -1 12 8 12 8 0 17 6 19 13 3 7 6 5 6 -5 1
-10 -4 -18 -11 -18 -6 0 -8 -3 -5 -6 4 -4 13 -1 22 6 11 9 15 10 15 0 0 -8 12
-10 41 -5 30 5 40 4 35 -4 -4 -6 -12 -9 -17 -6 -16 10 -10 -2 9 -16 9 -7 14
-10 10 -5 -13 15 19 35 47 30 17 -3 24 -1 20 6 -3 5 -13 10 -21 10 -8 0 -14 5
-14 10 0 7 7 7 21 0 24 -14 40 -4 19 11 -13 9 -13 10 1 6 9 -3 22 0 28 6 8 8
11 8 11 -2 0 -7 4 -10 9 -7 5 4 11 1 13 -4 2 -8 11 -8 28 0 23 10 23 10 2 6
-12 -2 -20 0 -16 5 3 5 14 9 24 9 23 0 35 16 18 24 -7 3 -1 3 14 0 19 -4 29
-1 37 13 8 14 11 14 11 3 0 -13 1 -13 10 0 5 8 12 11 17 7 4 -5 1 -12 -7 -17
-8 -5 -11 -12 -7 -17 5 -4 12 -1 17 7 8 13 10 13 10 1 0 -12 3 -11 13 2 9 13
21 15 50 11 20 -4 37 -11 37 -17 0 -5 8 -16 18 -24 16 -13 15 -14 -5 -10 -16
3 -20 1 -16 -10 3 -8 11 -12 18 -9 13 5 35 -12 35 -26 0 -4 -8 -4 -17 -1 -17
6 -17 6 -1 -10 9 -9 25 -17 35 -18 16 0 16 -1 -2 -8 -19 -8 -19 -8 0 -19 18
-10 18 -11 3 -12 -10 0 -18 -4 -18 -10 0 -5 7 -10 15 -10 16 0 16 -20 0 -32
-7 -5 -6 -11 1 -15 6 -5 14 -22 17 -40 5 -26 3 -32 -12 -35 -15 -2 -17 -8 -10
-25 8 -21 12 -22 212 -23 202 -1 204 0 219 22 8 13 15 26 14 29 -1 4 6 15 15
25 33 40 61 110 72 186 9 62 9 81 -1 87 -26 16 40 31 134 31 52 0 173 9 270
20 97 11 180 18 185 14 6 -3 16 0 24 6 9 7 26 9 45 5 31 -7 39 -20 18 -28 -9
-4 -10 -8 -3 -14 6 -4 16 -19 23 -33 l12 -25 -6 25 c-10 36 -11 46 -7 38 2 -4
10 -5 18 -2 7 3 21 -5 30 -18 l17 -23 -5 23 c-3 14 -1 20 5 15 7 -3 8 -1 4 5
-4 7 -1 12 8 12 18 0 22 -26 4 -32 -14 -5 -21 -84 -9 -105 7 -14 10 -13 15 5
4 12 12 22 17 22 13 0 11 -18 -3 -23 -10 -4 -10 -7 0 -18 10 -11 12 -10 12 4
0 9 5 17 10 17 6 0 10 6 10 13 0 7 11 24 25 39 29 31 32 43 10 34 -9 -3 -15
-1 -14 7 3 27 -2 35 -21 30 -11 -3 -20 -1 -20 5 0 5 14 12 32 16 17 3 29 8 27
10 -2 2 -24 0 -49 -4 -43 -8 -73 1 -56 17 24 25 352 29 571 8 83 -8 169 -15
193 -15 l42 0 0 934 0 935 -42 5 c-123 15 -2048 54 -3273 66 -489 5 -1065 16
-1280 24 -214 8 -527 18 -695 22 -168 3 -323 10 -345 15 -22 4 -53 11 -69 15
-17 4 -31 2 -35 -5 -4 -6 -15 -9 -25 -5 -13 5 -15 9 -5 15 22 13 18 34 -7 35
-14 1 -21 -3 -18 -10 11 -29 -27 -10 -41 21 -9 18 -20 31 -26 28 -5 -4 -9 2
-10 12 0 16 -1 16 -9 -2 l-9 -20 0 20 c-1 17 -3 17 -11 5 -5 -8 -10 -10 -10
-5 0 6 5 16 12 23 12 12 4 18 -37 24 -11 2 -24 13 -30 26 -5 12 -16 22 -24 22
-8 0 -12 3 -9 6 3 3 -7 19 -23 36 -15 17 -25 36 -22 41 3 6 1 7 -5 3 -7 -4
-12 -2 -12 4 0 6 -4 8 -10 5 -5 -3 -10 0 -10 7 0 7 -17 22 -37 33 -44 23 -73
49 -73 67 0 9 -3 9 -10 -2 -8 -13 -10 -12 -10 3 0 9 -4 17 -10 17 -5 0 -10 7
-10 15 0 8 -5 15 -11 15 -5 0 -7 -6 -4 -12 4 -7 0 -5 -8 4 -8 10 -17 15 -20
11 -4 -3 -7 -1 -7 6 0 7 -4 9 -10 6 -5 -3 -10 1 -10 10 0 8 -11 20 -25 25 -14
5 -25 17 -25 27 0 14 -2 15 -9 4 -5 -7 -10 -9 -12 -4 -6 15 -126 93 -133 86
-3 -4 -6 -1 -6 6 0 7 -4 9 -10 6 -5 -3 -10 -1 -10 4 0 6 -5 11 -11 11 -6 0
-17 7 -26 15 -8 8 -19 13 -24 10 -5 -4 -9 1 -9 9 0 17 -3 18 -47 20 -16 0 -37
9 -47 18 -11 10 -28 18 -38 18 -10 0 -18 8 -19 18 0 14 -2 14 -9 -3 -8 -19 -9
-19 -9 1 -1 18 -7 22 -35 20 -19 -1 -32 2 -30 6 3 5 -1 9 -8 9 -7 1 -24 3 -37
4 -13 1 -27 8 -31 15 -6 10 -9 9 -13 -1 -4 -11 -6 -11 -6 -1 -1 7 -5 10 -11 7
-5 -3 -10 0 -10 7 0 9 -3 9 -10 -2 -6 -9 -10 -10 -10 -3 0 6 -9 10 -20 8 -11
-2 -20 0 -20 5 0 5 -9 7 -20 5 -11 -2 -20 0 -20 4 0 12 -53 19 -76 10 -11 -3
-22 -2 -25 3 -9 14 -63 17 -71 4 -5 -7 -8 -6 -8 4 0 10 -11 17 -32 18 -18 2
-35 6 -38 11 -3 5 -21 11 -41 14 -20 2 -42 8 -48 11 -7 5 -11 -2 -12 -16 -1
-23 -1 -23 -9 2 -4 14 -8 21 -9 17 -1 -4 -10 -3 -21 3 -12 7 -20 7 -20 1 0
-12 -37 -6 -57 10 -8 7 -57 14 -116 16 -118 4 -150 10 -142 23 4 6 -7 10 -25
10 -17 0 -29 -4 -26 -8z m213 -38 c-3 -3 -12 -4 -19 -1 -8 3 -5 6 6 6 11 1 17
-2 13 -5z m1920 -920 c-3 -3 -12 -4 -19 -1 -8 3 -5 6 6 6 11 1 17 -2 13 -5z
m748 -94 c227 -25 388 -113 587 -318 135 -139 213 -262 259 -412 35 -110 32
-289 -5 -414 -100 -335 -283 -522 -606 -624 -138 -43 -241 -55 -415 -49 -165
5 -267 28 -389 85 -230 108 -398 297 -474 532 -31 96 -42 172 -42 288 0 273
105 513 290 665 118 97 385 213 540 236 41 6 86 13 100 15 46 6 64 6 155 -4z
m1029 -1706 c7 -19 -10 -44 -31 -44 -17 0 -27 24 -19 45 7 20 42 19 50 -1z
m151 3 c15 -12 16 -15 4 -23 -8 -5 -30 -9 -49 -9 -53 0 -50 -26 5 -53 51 -25
70 -58 55 -96 -17 -46 -75 -59 -132 -30 -28 14 -29 17 -15 31 13 14 20 14 47
3 27 -11 34 -11 47 3 13 13 14 19 4 31 -7 8 -23 18 -34 22 -34 10 -67 45 -67
70 0 49 90 83 135 51z m692 -19 c-3 -8 -6 -5 -6 6 -1 11 2 17 5 13 3 -3 4 -12
1 -19z m34 13 c7 11 9 10 9 -3 0 -10 -7 -18 -15 -18 -8 0 -15 8 -14 18 0 12 2
13 6 3 5 -11 7 -11 14 0z m-621 -31 c0 -15 7 -20 25 -20 18 0 25 -5 25 -20 0
-15 -7 -20 -26 -20 -23 0 -25 -3 -22 -42 2 -36 7 -44 26 -46 35 -5 30 -42 -6
-42 -46 0 -64 21 -70 78 -4 42 -8 52 -23 52 -12 0 -19 7 -19 20 0 13 7 20 20
20 13 0 20 7 20 20 0 15 7 20 25 20 18 0 25 -5 25 -20z m-260 -106 c0 -83 -1
-85 -22 -82 -21 3 -23 9 -26 72 -4 82 1 96 28 96 19 0 20 -6 20 -86z m465 61
c36 -35 35 -96 -2 -125 -22 -17 -37 -21 -68 -17 -48 7 -75 36 -75 81 0 75 93
114 145 61z m2632 -130 c8 -9 13 -19 10 -22 -3 -3 -13 2 -22 11 -9 9 -22 16
-28 16 -7 0 -6 -4 3 -10 8 -5 11 -12 7 -17 -8 -7 -27 14 -27 30 0 13 41 7 57
-8z m-3164 -48 c7 4 8 0 4 -11 -4 -10 -7 -20 -7 -22 0 -3 -4 -2 -10 1 -5 3
-10 16 -9 28 0 12 3 16 6 9 2 -6 10 -9 16 -5z m24 -9 c-3 -8 -6 -5 -6 6 -1 11
2 17 5 13 3 -3 4 -12 1 -19z m20 0 c-3 -8 -6 -5 -6 6 -1 11 2 17 5 13 3 -3 4
-12 1 -19z m70 0 c-3 -8 -6 -5 -6 6 -1 11 2 17 5 13 3 -3 4 -12 1 -19z m80
-25 c-3 -10 -5 -4 -5 12 0 17 2 24 5 18 2 -7 2 -21 0 -30z m-103 -51 c44 2 81
-26 56 -42 -19 -13 -30 -12 -30 0 0 15 -36 12 -50 -5 -27 -32 13 -81 48 -58
12 7 24 8 33 2 12 -8 11 -12 -5 -24 -21 -16 -73 -20 -93 -7 -25 16 -34 61 -19
96 11 26 11 37 3 47 -10 11 -9 11 4 1 8 -6 32 -11 53 -10z m1303 -7 c-4 -8
-12 -15 -19 -14 -10 0 -10 2 0 6 6 2 12 12 12 21 0 8 3 13 6 9 4 -3 4 -13 1
-22z m-1130 -30 c4 -4 2 -5 -4 -1 -8 4 -13 1 -13 -8 0 -9 -9 -16 -20 -16 -17
0 -20 -7 -20 -40 0 -33 -3 -40 -20 -40 -18 0 -20 7 -20 54 0 54 0 55 33 58 43
5 55 3 64 -7z"/>
<path d="M5011 3806 c-19 -7 -37 -18 -39 -24 -2 -7 8 -33 23 -58 27 -45 27
-48 11 -81 -9 -18 -16 -44 -16 -56 0 -18 -10 -25 -58 -39 -31 -10 -63 -22 -71
-27 -26 -17 0 -31 60 -31 59 0 69 -6 48 -27 -13 -13 -3 -53 13 -53 6 0 -17
-29 -51 -65 -108 -116 -143 -224 -106 -334 22 -68 130 -173 225 -221 25 -12
62 -38 83 -58 35 -35 37 -39 37 -102 l0 -66 -168 1 c-144 0 -172 -3 -195 -18
-39 -25 -59 -70 -55 -125 l3 -47 20 33 c19 31 20 32 25 11 9 -37 27 -33 35 8
l8 38 10 -27 c14 -38 29 -35 52 8 31 58 47 64 150 56 l90 -7 3 -122 3 -123
-88 -1 c-89 -1 -154 -16 -161 -37 -2 -8 15 -12 57 -12 34 0 61 -3 61 -6 0 -3
-11 -19 -25 -36 -22 -26 -33 -58 -20 -58 2 0 30 13 62 29 79 40 142 53 245 50
50 -2 88 1 89 6 2 19 -52 49 -99 55 l-47 5 3 115 c3 84 7 118 18 126 8 7 42 9
87 6 71 -4 73 -4 85 23 11 24 9 32 -23 83 -35 57 -44 95 -26 107 6 3 41 1 78
-5 80 -12 118 -44 109 -93 -5 -25 -4 -26 14 -17 10 6 24 18 29 28 9 15 10 15
11 -4 0 -29 -39 -84 -78 -110 -19 -14 -28 -25 -22 -29 8 -5 8 -11 0 -20 -16
-19 3 -27 34 -15 17 6 26 6 26 0 0 -6 7 -10 17 -10 15 0 15 -1 0 -18 -23 -25
-21 -32 6 -32 52 0 148 92 190 181 80 171 18 317 -173 411 -148 72 -444 208
-454 208 -9 0 95 -52 242 -120 87 -41 100 -67 20 -43 -29 8 -75 26 -102 39
-27 13 -55 24 -60 24 -19 -1 106 -56 179 -80 61 -19 133 -66 121 -77 -2 -3
-21 4 -43 15 -21 11 -49 23 -63 27 -25 7 -25 7 5 -25 l30 -33 -29 7 c-15 4
-42 9 -60 12 l-31 5 24 -20 23 -21 -26 0 c-14 0 -41 14 -62 33 -20 17 -57 43
-82 57 -55 30 -71 53 -56 77 6 10 22 21 35 24 17 5 19 7 6 8 -30 2 -57 -18
-57 -42 0 -31 17 -51 65 -76 63 -33 276 -216 297 -256 6 -11 -12 6 -41 37 -59
65 -125 106 -224 138 -78 25 -120 57 -147 111 -22 42 -26 118 -9 151 6 11 12
57 13 102 3 101 19 138 89 207 38 37 58 67 66 95 11 39 14 42 56 48 38 6 45
11 45 30 0 31 -51 108 -90 136 -66 47 -201 64 -279 36z m254 -36 c41 -25 42
-28 13 -66 -12 -16 -23 -31 -25 -33 -1 -2 -13 4 -27 12 -14 9 -43 19 -66 23
l-41 7 5 41 c2 22 5 44 5 47 2 12 103 -11 136 -31z m-170 -200 c-3 -5 -10 -10
-16 -10 -5 0 -9 5 -9 10 0 6 7 10 16 10 8 0 12 -4 9 -10z m-32 -207 c-28 -61
-36 -152 -19 -206 7 -24 6 -26 -9 -20 -15 5 -17 2 -13 -15 5 -17 2 -22 -13
-22 -12 0 -16 -5 -13 -15 4 -9 0 -15 -10 -15 -10 0 -13 -5 -9 -17 5 -12 2 -15
-10 -10 -11 4 -17 1 -17 -8 0 -31 -20 -13 -31 27 -16 59 -7 118 29 191 30 60
115 167 132 167 5 0 -3 -26 -17 -57z m127 -506 c25 -28 37 -48 28 -44 -9 3
-30 2 -47 -3 -23 -6 -31 -5 -35 7 -9 22 -7 93 2 92 4 -1 27 -24 52 -52z m70
-210 c27 -20 50 -60 50 -84 0 -20 -5 -23 -40 -23 l-40 0 0 60 c0 62 4 68 30
47z"/>
<path d="M6707 2059 c-38 -22 -9 -87 32 -74 21 6 36 38 26 55 -12 19 -40 29
-58 19z"/>
<path d="M2202 4900 c0 -14 2 -19 5 -12 2 6 2 18 0 25 -3 6 -5 1 -5 -13z"/>
<path d="M2242 4900 c0 -14 2 -19 5 -12 2 6 2 18 0 25 -3 6 -5 1 -5 -13z"/>
<path d="M2262 4900 c0 -14 2 -19 5 -12 2 6 2 18 0 25 -3 6 -5 1 -5 -13z"/>
<path d="M2498 4913 c12 -2 32 -2 45 0 12 2 2 4 -23 4 -25 0 -35 -2 -22 -4z"/>
<path d="M6160 4685 c0 -14 2 -25 4 -25 2 0 6 11 8 25 3 14 1 25 -3 25 -5 0
-9 -11 -9 -25z"/>
<path d="M6356 4645 c-7 -33 -10 -37 -16 -20 l-9 20 1 -20 c0 -37 14 -70 28
-70 8 -1 25 10 38 23 18 19 21 29 14 55 l-9 32 -11 -40 c-7 -22 -12 -47 -13
-55 -1 -8 -5 -4 -9 10 l-8 25 -1 -24 c-1 -13 -4 -22 -7 -19 -3 3 -2 23 2 44 7
36 8 37 15 14 5 -19 7 -20 7 -5 0 11 -3 31 -7 45 -7 23 -8 22 -15 -15z"/>
<path d="M6421 4644 c0 -11 3 -14 6 -6 3 7 2 16 -1 19 -3 4 -6 -2 -5 -13z"/>
<path d="M8720 4650 c0 -5 5 -10 11 -10 5 0 7 5 4 10 -3 6 -8 10 -11 10 -2 0
-4 -4 -4 -10z"/>
<path d="M6297 4622 c1 -8 3 -18 3 -23 0 -6 5 -7 10 -4 6 3 10 13 10 21 0 8
-4 13 -9 10 -5 -4 -11 -3 -14 1 -2 5 -2 2 0 -5z"/>
<path d="M8730 4620 c0 -5 7 -10 16 -10 8 0 12 5 9 10 -3 6 -10 10 -16 10 -5
0 -9 -4 -9 -10z"/>
<path d="M6261 4604 c0 -11 3 -14 6 -6 3 7 2 16 -1 19 -3 4 -6 -2 -5 -13z"/>
<path d="M6431 4604 c0 -11 3 -14 6 -6 3 7 2 16 -1 19 -3 4 -6 -2 -5 -13z"/>
<path d="M8615 4596 c32 -14 41 -13 30 3 -3 6 -18 11 -33 11 l-27 -1 30 -13z"/>
<path d="M6400 4573 c0 -1 10 -13 22 -25 17 -17 20 -18 15 -4 -4 10 -7 21 -7
25 0 4 -7 8 -15 8 -8 0 -15 -2 -15 -4z"/>
<path d="M6440 4567 c0 -7 5 -19 11 -27 9 -13 10 -13 6 2 -3 9 -1 18 6 21 6 2
4 6 -6 10 -10 4 -17 2 -17 -6z"/>
<path d="M8756 4564 c-5 -12 -2 -15 10 -10 8 3 21 6 27 6 7 0 6 4 -3 10 -21
14 -27 12 -34 -6z"/>
<path d="M6511 4525 c-6 -21 -8 -41 -6 -44 3 -2 5 2 5 10 0 11 2 11 10 -1 9
-13 10 -13 10 0 0 13 1 13 10 0 8 -11 9 -7 4 15 -13 56 -21 62 -33 20z m16
-17 c-3 -7 -5 -2 -5 12 0 14 2 19 5 13 2 -7 2 -19 0 -25z"/>
<path d="M6551 4524 c0 -11 3 -14 6 -6 3 7 2 16 -1 19 -3 4 -6 -2 -5 -13z"/>
<path d="M8845 4520 c-3 -5 4 -10 16 -10 17 0 20 -4 16 -21 -4 -15 -3 -19 5
-11 5 5 7 19 3 31 -7 22 -29 28 -40 11z"/>
<path d="M6601 4474 c0 -11 3 -14 6 -6 3 7 2 16 -1 19 -3 4 -6 -2 -5 -13z"/>
<path d="M7040 1985 c0 -9 9 -15 21 -15 18 0 19 2 9 15 -7 8 -16 15 -21 15 -5
0 -9 -7 -9 -15z"/>
<path d="M9380 1901 c0 -6 5 -13 11 -17 6 -3 9 -15 6 -25 -3 -10 0 -22 5 -26
7 -4 8 -1 3 7 -6 10 -4 12 7 7 12 -4 14 -1 11 14 -3 10 -9 19 -14 19 -5 0 -9
7 -9 15 0 8 -4 15 -10 15 -5 0 -10 -4 -10 -9z"/>
<path d="M7254 1844 c5 -13 4 -14 -7 -6 -14 12 -27 6 -27 -12 0 -6 4 -5 9 2 6
10 10 9 14 -7 6 -24 3 -25 -22 -11 -13 6 -24 5 -36 -4 -16 -11 -16 -13 -1 -13
9 0 16 4 16 9 0 9 41 -12 52 -27 27 -36 -14 -112 -53 -102 -17 5 -18 3 -7 -11
11 -14 10 -15 -6 -9 -16 6 -17 5 -7 -7 7 -8 10 -19 7 -24 -3 -5 3 -18 13 -28
16 -17 16 -20 2 -32 -9 -8 -11 -11 -5 -8 7 3 14 -1 18 -9 3 -8 16 -15 29 -15
19 0 23 5 23 28 -1 23 3 27 24 25 22 -2 22 -2 5 6 -19 8 -23 23 -25 106 0 17
1 47 2 68 2 21 1 40 -3 43 -3 2 -4 15 -1 29 3 16 0 25 -8 25 -7 0 -10 -7 -6
-16z m-37 -230 c-3 -3 -12 -4 -19 -1 -8 3 -5 6 6 6 11 1 17 -2 13 -5z"/>
<path d="M7440 1825 c7 -8 10 -20 7 -27 -3 -9 8 -13 37 -14 22 0 33 1 24 3
-10 3 -18 8 -18 13 0 5 -7 7 -15 4 -9 -4 -15 0 -15 9 0 8 -7 18 -16 21 -14 5
-15 4 -4 -9z"/>
<path d="M6690 1805 c-10 -12 -10 -15 4 -15 9 0 16 7 16 15 0 8 -2 15 -4 15
-2 0 -9 -7 -16 -15z"/>
<path d="M7385 1800 c-3 -6 1 -7 9 -4 18 7 21 14 7 14 -6 0 -13 -4 -16 -10z"/>
<path d="M7420 1799 c0 -5 5 -7 10 -4 6 3 10 8 10 11 0 2 -4 4 -10 4 -5 0 -10
-5 -10 -11z"/>
<path d="M7367 1779 c7 -7 15 -10 18 -7 3 3 -2 9 -12 12 -14 6 -15 5 -6 -5z"/>
<path d="M8756 1765 c-9 -26 -7 -32 5 -12 6 10 9 21 6 23 -2 3 -7 -2 -11 -11z"/>
<path d="M6545 1760 c-3 -5 3 -10 15 -10 12 0 18 5 15 10 -3 6 -10 10 -15 10
-5 0 -12 -4 -15 -10z"/>
<path d="M9436 1758 c3 -5 10 -6 15 -3 13 9 11 12 -6 12 -8 0 -12 -4 -9 -9z"/>
<path d="M6664 1745 c-8 -20 4 -35 27 -35 14 0 19 7 19 25 0 18 -5 25 -20 25
-11 0 -23 -7 -26 -15z"/>
<path d="M7190 1750 c0 -5 4 -10 9 -10 6 0 13 5 16 10 3 6 -1 10 -9 10 -9 0
-16 -4 -16 -10z"/>
<path d="M8672 1718 c-11 -23 -17 -46 -14 -50 12 -11 60 3 67 19 5 13 3 14
-10 3 -14 -12 -15 -10 -10 13 4 14 3 33 -3 42 -7 14 -12 10 -30 -27z m24 -13
c-4 -14 -12 -25 -18 -25 -9 0 -9 3 0 12 7 7 12 21 12 32 0 10 3 17 6 13 4 -3
4 -18 0 -32z"/>
<path d="M7375 1740 c-3 -5 -1 -10 4 -10 6 0 11 -5 11 -11 0 -5 -5 -7 -12 -3
-7 4 -8 3 -4 -5 9 -14 26 -5 26 14 0 18 -17 28 -25 15z"/>
<path d="M7201 1731 c-8 -5 -9 -11 -3 -15 5 -3 15 1 22 9 14 16 3 20 -19 6z"/>
<path d="M8742 1690 c0 -14 2 -19 5 -12 2 6 2 18 0 25 -3 6 -5 1 -5 -13z"/>
<path d="M6800 1690 c0 -5 5 -10 10 -10 6 0 10 5 10 10 0 6 -4 10 -10 10 -5 0
-10 -4 -10 -10z"/>
<path d="M8923 1692 c-6 -4 -14 -28 -18 -54 -5 -35 -12 -48 -24 -48 -14 0 -14
-2 -1 -10 13 -8 12 -10 -4 -10 -11 0 -27 7 -36 15 -13 12 -25 13 -56 6 l-39
-9 37 1 c21 0 41 -3 45 -7 4 -4 -17 -7 -47 -5 -83 4 -184 0 -177 -7 6 -6 83
-19 185 -30 47 -6 52 -5 46 11 -6 13 -2 16 17 13 13 -2 23 -9 22 -16 -2 -9 24
-12 102 -12 l105 0 0 36 c0 20 -4 33 -10 29 -5 -3 -7 0 -4 8 3 10 -5 18 -25
25 -22 8 -31 18 -32 34 0 22 -1 22 -9 3 -5 -11 -9 -14 -9 -7 -1 7 -5 11 -10 8
-5 -3 -11 3 -14 14 -5 20 -23 25 -44 12z m37 -6 c0 -3 -4 -8 -10 -11 -5 -3
-10 -1 -10 4 0 6 5 11 10 11 6 0 10 -2 10 -4z m-175 -136 l20 -9 -20 1 c-11 0
-31 4 -45 8 l-25 8 25 0 c14 0 34 -3 45 -8z"/>
<path d="M8841 1681 c-8 -5 -9 -11 -3 -15 5 -3 12 1 16 9 6 17 6 18 -13 6z"/>
<path d="M7331 1663 c-25 -27 -20 -63 9 -70 l25 -7 -25 -7 -25 -7 25 -8 25 -8
-25 -7 c-15 -4 10 -7 60 -7 62 0 76 2 52 8 -35 8 -54 20 -33 20 7 0 19 7 27
15 9 8 11 15 5 15 -6 0 -11 5 -11 10 0 16 -35 47 -48 42 -7 -2 -12 3 -12 12 0
21 -31 20 -49 -1z"/>
<path d="M8640 1646 c0 -6 -7 -23 -14 -38 -8 -16 -11 -28 -6 -28 5 0 12 9 15
20 6 20 11 22 50 24 35 2 23 30 -12 32 -19 1 -33 -3 -33 -10z"/>
<path d="M8787 1643 c-5 -7 -5 -13 0 -14 20 -2 -47 -17 -87 -19 l-45 -3 35 -7
35 -7 -45 -3 c-35 -2 -39 -4 -16 -7 16 -3 54 3 83 12 30 10 66 14 81 11 25 -6
26 -5 8 9 -10 8 -22 12 -27 10 -4 -3 -9 3 -11 12 -3 13 -6 15 -11 6z"/>
<path d="M8720 1630 c0 -5 5 -10 10 -10 6 0 10 5 10 10 0 6 -4 10 -10 10 -5 0
-10 -4 -10 -10z"/>
<path d="M9092 1550 c0 -14 2 -19 5 -12 2 6 2 18 0 25 -3 6 -5 1 -5 -13z"/>
<path d="M8348 959 c-76 -4 -198 -18 -270 -29 -73 -11 -205 -31 -293 -44 -334
-51 -620 -57 -1002 -21 -256 24 -274 26 -358 35 -320 37 -463 44 -795 44 -362
0 -427 -4 -960 -59 -179 -19 -390 -39 -470 -46 -227 -19 -713 -14 -1190 11
-631 34 -1227 33 -1710 -3 -232 -18 -508 -31 -795 -37 -242 -6 -455 -13 -472
-16 l-33 -5 0 -394 0 -395 5120 0 5120 0 0 418 0 419 -162 7 c-178 7 -354 23
-693 61 -490 55 -787 71 -1037 54z m-8158 -749 c0 -22 -4 -40 -10 -40 -5 0
-10 14 -10 30 0 17 -5 30 -11 30 -5 0 -7 5 -4 10 3 6 13 10 21 10 10 0 14 -12
14 -40z m51 13 l2 -28 4 28 c4 24 9 28 31 25 24 -3 27 -7 27 -38 0 -29 -4 -36
-24 -38 -13 -2 -28 2 -32 10 -7 10 -9 10 -9 1 0 -7 -4 -13 -10 -13 -5 0 -10
14 -10 30 0 17 -4 30 -10 30 -5 0 -10 5 -10 10 0 6 9 10 20 10 15 0 20 -7 21
-27z m134 -13 c0 -31 -3 -35 -25 -35 -19 0 -26 6 -28 23 -5 36 5 54 30 50 19
-2 23 -9 23 -38z m55 25 c-10 -12 -10 -15 4 -15 11 0 16 -9 16 -26 0 -22 -4
-25 -27 -22 -20 2 -29 9 -31 26 -4 27 14 52 35 52 13 0 13 -3 3 -15z m60 -25
c0 -22 -4 -40 -10 -40 -5 0 -10 14 -10 30 0 17 -5 30 -11 30 -5 0 -7 5 -4 10
3 6 13 10 21 10 10 0 14 -12 14 -40z m70 16 c0 -14 -5 -28 -12 -32 -8 -5 -6
-10 8 -15 14 -6 8 -8 -20 -8 l-39 -1 21 23 c27 29 28 37 1 37 -11 0 -17 5 -14
10 3 6 17 10 31 10 19 0 24 -5 24 -24z m70 -4 c0 -31 -16 -52 -39 -52 -11 0
-12 3 -3 12 9 9 7 14 -5 23 -23 17 -9 45 22 45 21 0 25 -5 25 -28z m67 12 c8
-22 -13 -64 -33 -64 -13 0 -14 3 -4 15 10 12 10 15 -4 15 -10 0 -16 9 -16 25
0 20 5 25 25 25 14 0 28 -7 32 -16z m49 8 c16 -10 23 -48 12 -63 -7 -11 -11
-11 -15 -1 -2 6 -13 12 -23 12 -17 0 -18 4 -9 30 11 31 17 35 35 22z"/>
<path d="M340 210 c0 -11 5 -20 10 -20 6 0 10 9 10 20 0 11 -4 20 -10 20 -5 0
-10 -9 -10 -20z"/>
<path d="M731 214 c0 -11 3 -14 6 -6 3 7 2 16 -1 19 -3 4 -6 -2 -5 -13z"/>
</g>
</svg>
